<svg xmlns="http://www.w3.org/2000/svg" width="63" height="56" fill="none"><g clip-path="url(#a)"><path fill="#A5D6A7" d="M2.352 12.575h59.082V44H2.352V12.575Z"/><path fill="#388E3C" d="M0 42.655a3 3 0 0 0 3 3h57.01a3 3 0 0 0 3-3V13a2 2 0 0 0-2-2H2a2 2 0 0 0-2 2v29.655ZM59.859 14.15v28.355H3.15V14.15H59.86Z"/><path fill="#388E3C" d="M12.602 25.177a3.15 3.15 0 1 0 0 6.302 3.15 3.15 0 0 0 0-6.302Zm37.806 0a3.15 3.15 0 1 0 0 6.3 3.15 3.15 0 0 0 0-6.3Zm-18.903-7.876a11.026 11.026 0 1 0 0 22.053 11.026 11.026 0 0 0 0-22.053Zm23.28-4.726a4.69 4.69 0 0 0-1.227 3.15 4.725 4.725 0 0 0 4.726 4.726 4.69 4.69 0 0 0 3.15-1.227v-6.649h-6.649Zm-46.56 0h-6.65v6.65a4.691 4.691 0 0 0 3.15 1.226 4.725 4.725 0 0 0 4.726-4.725 4.69 4.69 0 0 0-1.227-3.15Zm0 31.505a4.69 4.69 0 0 0 1.226-3.15 4.725 4.725 0 0 0-4.725-4.726 4.691 4.691 0 0 0-3.15 1.227v6.649h6.648Zm53.21 0v-6.65a4.69 4.69 0 0 0-3.151-1.226 4.725 4.725 0 0 0-4.726 4.725 4.69 4.69 0 0 0 1.227 3.15h6.65Z"/></g><defs><clipPath id="a"><path fill="#fff" d="M0 0h63v56H0z"/></clipPath></defs></svg>