<svg xmlns="http://www.w3.org/2000/svg" width="63" height="56" fill="none"><path fill="#F57C00" d="M0 13.666v28a4.667 4.667 0 0 0 4.667 4.667h38.5c1.166 0 1.166-1.162 1.166-1.162V13.666H0Z"/><path fill="#942A09" d="M43.167 9h-38.5a4.666 4.666 0 1 0 0 9.333h38.5c1.166 0 1.166 1.167 1.166 1.167v-9.333c0-.644-.521-1.167-1.166-1.167Z"/><path fill="#4CAF50" d="M4.667 13.666v4.667h38.5c1.166 0 1.166 1.17 1.166 1.17V44h2.334V13.666h-42Z"/><path fill="#C8E6C9" d="M4.667 16v2.333H38.13A8.21 8.21 0 0 1 37.43 16H4.667Z"/><path fill="#BF360C" d="M49 27.5a1 1 0 0 0-1-1h-9.5a4.667 4.667 0 0 0 0 9.333H48a1 1 0 0 0 1-1V27.5Z"/><path fill="#FFECB3" d="M38.5 28.833a2.333 2.333 0 1 0 0 4.667 2.333 2.333 0 0 0 0-4.667Z"/></svg>