<svg xmlns="http://www.w3.org/2000/svg" width="78" height="78" fill="none"><g clip-path="url(#a)"><path fill="#F1F1F1" d="M78 0H0v78h78V0Z"/><path fill="#E8AD8C" d="M16.961 54.66C29.727 50.683 32.66 27.981 32.66 27.981l1.264-.002s.436 17.4-6.523 26.68H16.96Z"/><path fill="#4CAF50" d="m33.2 28.177 11.6-11.599a9.651 9.651 0 0 0-11.6 9.455v2.144Z"/><path fill="#4CAF50" d="M33.2 27.98h18.528c-2.117-2.812-5.473-4.64-9.263-4.64-3.791 0-7.148 1.828-9.265 4.64ZM35.17 27.98h-2.158l12.76 12.76a10.8 10.8 0 0 0 .188-1.97c0-5.96-4.831-10.79-10.79-10.79Z"/><path fill="#4CAF50" d="M33.2 28.177 21.6 16.578a9.651 9.651 0 0 1 11.6 9.455v2.144Z"/><path fill="#4CAF50" d="M33.2 27.98H14.672c2.117-2.812 5.473-4.64 9.264-4.64 3.79 0 7.147 1.828 9.264 4.64ZM31.23 27.98h2.158l-12.76 12.76a10.8 10.8 0 0 1-.187-1.97c0-5.96 4.831-10.79 10.79-10.79Z"/><path fill="#FDB52A" d="m37.027 53.143 15.892 8.475H16.961a2.32 2.32 0 0 1-2.32-2.32v-6.96h19.17c1.122 0 2.227.277 3.216.805Z"/><path fill="#2AA4F4" d="M59.88 53.499c-1.923 0-3.48-1.16-3.48-1.16s-1.559 1.16-3.48 1.16c-1.923 0-3.48-1.16-3.48-1.16s-1.558 1.16-3.48 1.16-3.48-1.16-3.48-1.16-1.558 1.16-3.48 1.16c-.819 0-1.562-.213-2.157-.455l16.076 8.574h8.12a2.32 2.32 0 0 0 2.32-2.32v-6.96s-1.558 1.16-3.48 1.16Z"/></g><defs><clipPath id="a"><path fill="#fff" d="M0 24C0 10.745 10.745 0 24 0h30c13.255 0 24 10.745 24 24v30c0 13.255-10.745 24-24 24H24C10.745 78 0 67.255 0 54V24Z"/></clipPath></defs></svg>