<svg xmlns="http://www.w3.org/2000/svg" width="78" height="79" fill="none"><g clip-path="url(#a)"><path fill="#F1F1F1" d="M78 .95H0v78h78v-78Z"/><path fill="#E13F1F" d="M40.078 23.24h-2.156v7.547h2.156V23.24ZM46.547 23.24H44.39v7.547h2.156V23.24ZM59.484 23.24h-2.156v7.547h2.156V23.24ZM20.672 23.24h-2.157v7.547h2.157V23.24ZM27.14 23.24h-2.156v7.547h2.157V23.24ZM33.61 23.24h-2.157v7.547h2.156V23.24ZM53.016 23.24h-2.157v7.547h2.157V23.24Z"/><path fill="#E13F1F" d="M61.64 30.787H16.36V35.1a6.468 6.468 0 0 1 6.468 6.468v9.704h6.469v-6.47A9.703 9.703 0 0 1 39 35.1a9.703 9.703 0 0 1 9.703 9.703v6.469h6.469v-9.704a6.468 6.468 0 0 1 6.469-6.468v-4.313Z"/><path fill="#2AA4F4" d="M58.406 49.114c-1.786 0-3.234-1.078-3.234-1.078s-1.448 1.078-3.234 1.078c-1.787 0-3.235-1.078-3.235-1.078s-1.448 1.078-3.234 1.078c-1.787 0-3.235-1.078-3.235-1.078S40.786 49.114 39 49.114s-3.234-1.078-3.234-1.078-1.448 1.078-3.235 1.078c-1.786 0-3.234-1.078-3.234-1.078s-1.448 1.078-3.235 1.078c-1.786 0-3.234-1.078-3.234-1.078s-1.448 1.078-3.234 1.078c-1.787 0-3.235-1.078-3.235-1.078v8.625c0 1.191.965 2.156 2.156 2.156h40.969a2.156 2.156 0 0 0 2.157-2.156v-8.625s-1.448 1.078-3.235 1.078Z"/><path fill="#FF5634" d="M61.64 21.083H16.36v2.156h45.28v-2.156Z"/></g><defs><clipPath id="a"><path fill="#fff" d="M0 24C0 10.745 10.745 0 24 0h30c13.255 0 24 10.745 24 24v31c0 13.255-10.745 24-24 24H24C10.745 79 0 68.255 0 55V24Z"/></clipPath></defs></svg>