<svg xmlns="http://www.w3.org/2000/svg" width="78" height="78" fill="none"><g clip-path="url(#a)"><path fill="#F1F1F1" d="M78 0H0v78h78V0Z"/><path fill="#929292" d="M47.203 93.437H30.797l4.101-49.218h8.203l4.102 49.218Z"/><path fill="#CACACA" d="M37.36 93.437h-6.563l4.101-49.218h2.461v49.218Z"/><path fill="#1D88FE" d="M39.547 24.531a3.42 3.42 0 0 1-.628-.056c-.2-.038-.38-.093-.532-.162a1.086 1.086 0 0 1-.356-.242.424.424 0 0 1-.125-.286V8.871c0-.198.173-.388.48-.528.308-.14.726-.218 1.16-.218.436 0 .853.079 1.161.218.308.14.48.33.48.528v14.914a.425.425 0 0 1-.124.286c-.083.09-.203.173-.356.242-.152.07-.333.124-.532.162a3.42 3.42 0 0 1-.628.056Z"/><path fill="#8FC3FF" d="M33.349 21.25H44.65a3.28 3.28 0 0 1 3.281 3.281v6.563H30.068V24.53a3.28 3.28 0 0 1 3.28-3.281Z"/><path fill="#1D88FE" d="M52.125 31.094h-26.25a3.281 3.281 0 1 0 0 6.562h26.25a3.281 3.281 0 1 0 0-6.562Z"/><path fill="#8FC3FF" d="M59.781 37.656H18.22a2.188 2.188 0 0 0 0 4.375H59.78a2.188 2.188 0 1 0 0-4.375Z"/><path fill="#1D88FE" d="M52.125 42.031h-26.25a3.281 3.281 0 0 0 0 6.563h26.25a3.281 3.281 0 0 0 0-6.563Z"/></g><defs><clipPath id="a"><path fill="#fff" d="M0 24C0 10.745 10.745 0 24 0h30c13.255 0 24 10.745 24 24v30c0 13.255-10.745 24-24 24H24C10.745 78 0 67.255 0 54V24Z"/></clipPath></defs></svg>